<svg version="1.1" id="Layer_1" xmlns="http://www.w3.org/2000/svg" xmlns:xlink="http://www.w3.org/1999/xlink" x="0px" y="0px"
	 width="100%" viewBox="0 0 170 154" enable-background="new 0 0 170 154" xml:space="preserve">
<path fill="#FCF2F2" opacity="1.000000" stroke="none" 
	d="
M171.000000,64.000000 
	C171.000000,94.666664 171.000000,124.833336 171.000000,155.000000 
	C114.333336,155.000000 57.666668,155.000000 1.000000,155.000000 
	C1.000000,103.666664 1.000000,52.333332 1.000000,1.000000 
	C57.666668,1.000000 114.333336,1.000000 171.000000,1.000000 
	C171.000000,21.833334 171.000000,42.666668 171.000000,64.000000 
M168.719864,108.500473 
	C168.719849,89.001984 168.720917,69.503487 168.719299,50.004997 
	C168.718658,42.172318 168.907135,34.333607 168.665298,26.508282 
	C168.239304,12.723126 159.377502,3.745946 146.107468,3.721013 
	C105.777420,3.645236 65.447037,3.643049 25.117004,3.722191 
	C11.788466,3.748347 2.920894,12.740908 2.906683,26.008295 
	C2.869552,60.672218 3.272537,95.342392 2.705462,129.997070 
	C2.483449,143.564514 15.024261,153.295914 26.131390,153.164124 
	C65.622749,152.695602 105.123062,152.987289 144.619980,152.978119 
	C159.234451,152.974731 168.519760,143.746536 168.703156,128.998810 
	C168.783966,122.500305 168.718857,115.999992 168.719864,108.500473 
z"/>
<path fill="#BD0404" opacity="1.000000" stroke="none" 
	d="
M168.719940,109.000488 
	C168.718857,115.999992 168.783966,122.500305 168.703156,128.998810 
	C168.519760,143.746536 159.234451,152.974731 144.619980,152.978119 
	C105.123062,152.987289 65.622749,152.695602 26.131390,153.164124 
	C15.024261,153.295914 2.483449,143.564514 2.705462,129.997070 
	C3.272537,95.342392 2.869552,60.672218 2.906683,26.008295 
	C2.920894,12.740908 11.788466,3.748347 25.117004,3.722191 
	C65.447037,3.643049 105.777420,3.645236 146.107468,3.721013 
	C159.377502,3.745946 168.239304,12.723126 168.665298,26.508282 
	C168.907135,34.333607 168.718658,42.172318 168.719299,50.004997 
	C168.720917,69.503487 168.719849,89.001984 168.719940,109.000488 
M22.362822,53.901073 
	C13.041217,66.164062 12.464738,82.512505 20.938059,94.305878 
	C29.036644,105.577682 43.537109,110.063416 56.948906,105.445877 
	C69.101067,101.262016 77.462135,89.517647 77.896957,76.021240 
	C78.338989,62.300957 70.733894,49.975632 58.682457,44.880947 
	C46.101303,39.562328 33.094578,42.645031 22.362822,53.901073 
M80.850464,72.615311 
	C80.889961,79.105255 80.714706,85.605476 81.024475,92.082497 
	C81.394180,99.812729 85.233109,104.839211 92.863365,105.943954 
	C98.985619,106.830360 105.438087,106.651398 111.585426,105.800049 
	C117.485962,104.982872 121.723488,100.805687 122.083267,94.693001 
	C122.615211,85.655235 122.220749,76.562943 122.220749,67.297348 
	C118.240372,67.297348 114.138901,67.297348 109.685280,67.297348 
	C109.591713,68.877563 109.459816,70.332352 109.427299,71.789368 
	C109.293716,77.775581 109.345161,83.770836 109.022148,89.746201 
	C108.802422,93.810966 106.468193,96.027573 102.210640,96.127083 
	C98.160042,96.221748 95.361000,94.736824 94.736870,90.506531 
	C94.350777,87.889587 94.186096,85.224030 94.138977,82.576439 
	C94.048592,77.498459 94.112671,72.417717 94.112671,67.410530 
	C89.309227,67.410530 85.234413,67.410530 80.850487,67.410530 
	C80.850487,69.022964 80.850487,70.333435 80.850464,72.615311 
M140.247314,106.789841 
	C144.737213,106.450874 149.227112,106.111900 154.182587,105.737778 
	C152.739288,101.070274 151.718353,97.768608 150.606064,94.171539 
	C147.313431,95.683884 144.606293,95.388351 144.336716,91.418083 
	C144.026947,86.855789 144.264832,82.256310 144.264832,77.556595 
	C147.238480,77.363380 149.644592,77.207039 151.953064,77.057045 
	C151.953064,73.543999 151.953064,70.476608 151.953064,67.311134 
	C149.207153,67.141891 146.801147,66.993599 144.016388,66.821953 
	C144.016388,62.019390 144.016388,57.590214 144.016388,53.027374 
	C139.519287,53.027374 135.436920,53.027374 130.803528,53.027374 
	C130.803528,57.779663 130.803528,62.336269 130.803528,66.823082 
	C128.649902,67.064285 127.049065,67.243568 125.392319,67.429123 
	C125.392319,70.821899 125.392319,73.905594 125.392319,77.053970 
	C127.262047,77.264633 128.870850,77.445908 130.882034,77.672516 
	C130.882034,80.538536 130.872162,83.165512 130.884705,85.792381 
	C130.898224,88.624718 130.783401,91.467857 130.989471,94.286919 
	C131.405823,99.982918 133.507462,104.618584 140.247314,106.789841 
z"/>
<path fill="#FEFBFB" opacity="1.000000" stroke="none" 
	d="
M22.604877,53.637665 
	C33.094578,42.645031 46.101303,39.562328 58.682457,44.880947 
	C70.733894,49.975632 78.338989,62.300957 77.896957,76.021240 
	C77.462135,89.517647 69.101067,101.262016 56.948906,105.445877 
	C43.537109,110.063416 29.036644,105.577682 20.938059,94.305878 
	C12.464738,82.512505 13.041217,66.164062 22.604877,53.637665 
M41.405693,92.680412 
	C51.756321,94.196861 57.243053,91.915710 60.501133,84.255447 
	C63.299385,77.676315 63.340164,70.947861 60.078148,64.454178 
	C56.742348,57.813606 50.205219,54.844658 42.956177,56.469646 
	C35.852295,58.062096 31.450598,63.745674 30.449741,72.618271 
	C29.403980,81.888931 32.893898,88.616089 41.405693,92.680412 
z"/>
<path fill="#FDF9F9" opacity="1.000000" stroke="none" 
	d="
M80.850479,72.129608 
	C80.850487,70.333435 80.850487,69.022964 80.850487,67.410530 
	C85.234413,67.410530 89.309227,67.410530 94.112671,67.410530 
	C94.112671,72.417717 94.048592,77.498459 94.138977,82.576439 
	C94.186096,85.224030 94.350777,87.889587 94.736870,90.506531 
	C95.361000,94.736824 98.160042,96.221748 102.210640,96.127083 
	C106.468193,96.027573 108.802422,93.810966 109.022148,89.746201 
	C109.345161,83.770836 109.293716,77.775581 109.427299,71.789368 
	C109.459816,70.332352 109.591713,68.877563 109.685280,67.297348 
	C114.138901,67.297348 118.240372,67.297348 122.220749,67.297348 
	C122.220749,76.562943 122.615211,85.655235 122.083267,94.693001 
	C121.723488,100.805687 117.485962,104.982872 111.585426,105.800049 
	C105.438087,106.651398 98.985619,106.830360 92.863365,105.943954 
	C85.233109,104.839211 81.394180,99.812729 81.024475,92.082497 
	C80.714706,85.605476 80.889961,79.105255 80.850479,72.129608 
z"/>
<path fill="#FEFCFC" opacity="1.000000" stroke="none" 
	d="
M139.857025,106.657852 
	C133.507462,104.618584 131.405823,99.982918 130.989471,94.286919 
	C130.783401,91.467857 130.898224,88.624718 130.884705,85.792381 
	C130.872162,83.165512 130.882034,80.538536 130.882034,77.672516 
	C128.870850,77.445908 127.262047,77.264633 125.392319,77.053970 
	C125.392319,73.905594 125.392319,70.821899 125.392319,67.429123 
	C127.049065,67.243568 128.649902,67.064285 130.803528,66.823082 
	C130.803528,62.336269 130.803528,57.779663 130.803528,53.027374 
	C135.436920,53.027374 139.519287,53.027374 144.016388,53.027374 
	C144.016388,57.590214 144.016388,62.019390 144.016388,66.821953 
	C146.801147,66.993599 149.207153,67.141891 151.953064,67.311134 
	C151.953064,70.476608 151.953064,73.543999 151.953064,77.057045 
	C149.644592,77.207039 147.238480,77.363380 144.264832,77.556595 
	C144.264832,82.256310 144.026947,86.855789 144.336716,91.418083 
	C144.606293,95.388351 147.313431,95.683884 150.606064,94.171539 
	C151.718353,97.768608 152.739288,101.070274 154.182587,105.737778 
	C149.227112,106.111900 144.737213,106.450874 139.857025,106.657852 
z"/>
<path fill="#BE0505" opacity="1.000000" stroke="none" 
	d="
M41.037216,92.498405 
	C32.893898,88.616089 29.403980,81.888931 30.449741,72.618271 
	C31.450598,63.745674 35.852295,58.062096 42.956177,56.469646 
	C50.205219,54.844658 56.742348,57.813606 60.078148,64.454178 
	C63.340164,70.947861 63.299385,77.676315 60.501133,84.255447 
	C57.243053,91.915710 51.756321,94.196861 41.037216,92.498405 
z"/>
</svg>